<svg width="116" height="56" viewBox="0 0 116 56" fill="none" xmlns="http://www.w3.org/2000/svg">
<rect x="1" y="1" width="113.635" height="53.8446" fill="white" stroke="black" stroke-width="2"/>
<path d="M13.6521 35.27C12.3561 35.27 11.2461 34.988 10.3221 34.424C9.39807 33.854 8.68707 33.062 8.18907 32.048C7.69707 31.034 7.45107 29.858 7.45107 28.52C7.45107 27.182 7.69707 26.006 8.18907 24.992C8.68707 23.978 9.39807 23.189 10.3221 22.625C11.2461 22.055 12.3561 21.77 13.6521 21.77C15.1461 21.77 16.3911 22.145 17.3871 22.895C18.3831 23.639 19.0821 24.644 19.4841 25.91L17.2971 26.513C17.0451 25.667 16.6161 25.007 16.0101 24.533C15.4041 24.053 14.6181 23.813 13.6521 23.813C12.7821 23.813 12.0561 24.008 11.4741 24.398C10.8981 24.788 10.4631 25.337 10.1691 26.045C9.88107 26.747 9.73407 27.572 9.72807 28.52C9.72807 29.468 9.87207 30.296 10.1601 31.004C10.4541 31.706 10.8921 32.252 11.4741 32.642C12.0561 33.032 12.7821 33.227 13.6521 33.227C14.6181 33.227 15.4041 32.987 16.0101 32.507C16.6161 32.027 17.0451 31.367 17.2971 30.527L19.4841 31.13C19.0821 32.396 18.3831 33.404 17.3871 34.154C16.3911 34.898 15.1461 35.27 13.6521 35.27ZM25.7531 35.27C24.7811 35.27 23.9321 35.051 23.2061 34.613C22.4801 34.175 21.9161 33.572 21.5141 32.804C21.1181 32.03 20.9201 31.142 20.9201 30.14C20.9201 29.12 21.1241 28.226 21.5321 27.458C21.9401 26.69 22.5071 26.09 23.2331 25.658C23.9591 25.226 24.7991 25.01 25.7531 25.01C26.7311 25.01 27.5831 25.229 28.3091 25.667C29.0351 26.105 29.5991 26.711 30.0011 27.485C30.4031 28.253 30.6041 29.138 30.6041 30.14C30.6041 31.148 30.4001 32.039 29.9921 32.813C29.5901 33.581 29.0261 34.184 28.3001 34.622C27.5741 35.054 26.7251 35.27 25.7531 35.27ZM25.7531 33.236C26.6171 33.236 27.2591 32.948 27.6791 32.372C28.0991 31.796 28.3091 31.052 28.3091 30.14C28.3091 29.198 28.0961 28.448 27.6701 27.89C27.2441 27.326 26.6051 27.044 25.7531 27.044C25.1711 27.044 24.6911 27.176 24.3131 27.44C23.9411 27.698 23.6651 28.061 23.4851 28.529C23.3051 28.991 23.2151 29.528 23.2151 30.14C23.2151 31.082 23.4281 31.835 23.8541 32.399C24.2861 32.957 24.9191 33.236 25.7531 33.236ZM39.3101 35V30.32C39.3101 30.014 39.2891 29.675 39.2471 29.303C39.2051 28.931 39.1061 28.574 38.9501 28.232C38.8001 27.884 38.5721 27.599 38.2661 27.377C37.9661 27.155 37.5581 27.044 37.0421 27.044C36.7661 27.044 36.4931 27.089 36.2231 27.179C35.9531 27.269 35.7071 27.425 35.4851 27.647C35.2691 27.863 35.0951 28.163 34.9631 28.547C34.8311 28.925 34.7651 29.411 34.7651 30.005L33.4781 29.456C33.4781 28.628 33.6371 27.878 33.9551 27.206C34.2791 26.534 34.7531 26 35.3771 25.604C36.0011 25.202 36.7691 25.001 37.6811 25.001C38.4011 25.001 38.9951 25.121 39.4631 25.361C39.9311 25.601 40.3031 25.907 40.5791 26.279C40.8551 26.651 41.0591 27.047 41.1911 27.467C41.3231 27.887 41.4071 28.286 41.4431 28.664C41.4851 29.036 41.5061 29.339 41.5061 29.573V35H39.3101ZM32.5691 35V25.28H34.5041V28.295H34.7651V35H32.5691ZM49.5517 35C48.9097 35.12 48.2797 35.171 47.6617 35.153C47.0497 35.141 46.5007 35.03 46.0147 34.82C45.5287 34.604 45.1597 34.265 44.9077 33.803C44.6857 33.383 44.5687 32.954 44.5567 32.516C44.5447 32.078 44.5387 31.583 44.5387 31.031V22.58H46.6987V30.905C46.6987 31.295 46.7017 31.637 46.7077 31.931C46.7197 32.225 46.7827 32.465 46.8967 32.651C47.1127 33.011 47.4577 33.212 47.9317 33.254C48.4057 33.296 48.9457 33.272 49.5517 33.182V35ZM42.7747 26.981V25.28H49.5517V26.981H42.7747ZM54.3598 35.27C53.6578 35.27 53.0638 35.138 52.5778 34.874C52.0918 34.604 51.7228 34.247 51.4708 33.803C51.2248 33.359 51.1018 32.87 51.1018 32.336C51.1018 31.868 51.1798 31.448 51.3358 31.076C51.4918 30.698 51.7318 30.374 52.0558 30.104C52.3798 29.828 52.7998 29.603 53.3158 29.429C53.7058 29.303 54.1618 29.189 54.6838 29.087C55.2118 28.985 55.7818 28.892 56.3938 28.808C57.0118 28.718 57.6568 28.622 58.3288 28.52L57.5548 28.961C57.5608 28.289 57.4108 27.794 57.1048 27.476C56.7988 27.158 56.2828 26.999 55.5568 26.999C55.1188 26.999 54.6958 27.101 54.2878 27.305C53.8798 27.509 53.5948 27.86 53.4328 28.358L51.4528 27.737C51.6928 26.915 52.1488 26.255 52.8208 25.757C53.4988 25.259 54.4108 25.01 55.5568 25.01C56.4208 25.01 57.1798 25.151 57.8338 25.433C58.4938 25.715 58.9828 26.177 59.3008 26.819C59.4748 27.161 59.5798 27.512 59.6158 27.872C59.6518 28.226 59.6698 28.613 59.6698 29.033V35H57.7708V32.894L58.0858 33.236C57.6478 33.938 57.1348 34.454 56.5468 34.784C55.9648 35.108 55.2358 35.27 54.3598 35.27ZM54.7918 33.542C55.2838 33.542 55.7038 33.455 56.0518 33.281C56.3998 33.107 56.6758 32.894 56.8798 32.642C57.0898 32.39 57.2308 32.153 57.3028 31.931C57.4168 31.655 57.4798 31.34 57.4918 30.986C57.5098 30.626 57.5188 30.335 57.5188 30.113L58.1848 30.311C57.5308 30.413 56.9698 30.503 56.5018 30.581C56.0338 30.659 55.6318 30.734 55.2958 30.806C54.9598 30.872 54.6628 30.947 54.4048 31.031C54.1528 31.121 53.9398 31.226 53.7658 31.346C53.5918 31.466 53.4568 31.604 53.3608 31.76C53.2708 31.916 53.2258 32.099 53.2258 32.309C53.2258 32.549 53.2858 32.762 53.4058 32.948C53.5258 33.128 53.6998 33.272 53.9278 33.38C54.1618 33.488 54.4498 33.542 54.7918 33.542ZM66.2339 35.27C65.2319 35.27 64.3769 35.048 63.6689 34.604C62.9609 34.154 62.4179 33.542 62.0399 32.768C61.6679 31.994 61.4789 31.118 61.4729 30.14C61.4789 29.144 61.6739 28.262 62.0579 27.494C62.4479 26.72 62.9999 26.114 63.7139 25.676C64.4279 25.232 65.2769 25.01 66.2609 25.01C67.3649 25.01 68.2979 25.289 69.0599 25.847C69.8279 26.399 70.3289 27.155 70.5629 28.115L68.4029 28.7C68.2349 28.178 67.9559 27.773 67.5659 27.485C67.1759 27.191 66.7319 27.044 66.2339 27.044C65.6699 27.044 65.2049 27.179 64.8389 27.449C64.4729 27.713 64.2029 28.079 64.0289 28.547C63.8549 29.015 63.7679 29.546 63.7679 30.14C63.7679 31.064 63.9749 31.811 64.3889 32.381C64.8029 32.951 65.4179 33.236 66.2339 33.236C66.8099 33.236 67.2629 33.104 67.5929 32.84C67.9289 32.576 68.1809 32.195 68.3489 31.697L70.5629 32.192C70.2629 33.182 69.7379 33.944 68.9879 34.478C68.2379 35.006 67.3199 35.27 66.2339 35.27ZM78.0634 35C77.4214 35.12 76.7914 35.171 76.1734 35.153C75.5614 35.141 75.0124 35.03 74.5264 34.82C74.0404 34.604 73.6714 34.265 73.4194 33.803C73.1974 33.383 73.0804 32.954 73.0684 32.516C73.0564 32.078 73.0504 31.583 73.0504 31.031V22.58H75.2104V30.905C75.2104 31.295 75.2134 31.637 75.2194 31.931C75.2314 32.225 75.2944 32.465 75.4084 32.651C75.6244 33.011 75.9694 33.212 76.4434 33.254C76.9174 33.296 77.4574 33.272 78.0634 33.182V35ZM71.2864 26.981V25.28H78.0634V26.981H71.2864ZM83.757 35V22.04H85.71L90.192 31.22L94.674 22.04H96.627V35H94.602V26.693L90.624 35H89.76L85.791 26.693V35H83.757ZM103.574 35.27C102.59 35.27 101.726 35.057 100.982 34.631C100.238 34.205 99.6564 33.614 99.2364 32.858C98.8224 32.102 98.6154 31.232 98.6154 30.248C98.6154 29.186 98.8194 28.265 99.2274 27.485C99.6354 26.699 100.202 26.09 100.928 25.658C101.654 25.226 102.494 25.01 103.448 25.01C104.456 25.01 105.311 25.247 106.013 25.721C106.721 26.189 107.246 26.852 107.588 27.71C107.93 28.568 108.059 29.579 107.975 30.743H105.824V29.951C105.818 28.895 105.632 28.124 105.266 27.638C104.9 27.152 104.324 26.909 103.538 26.909C102.65 26.909 101.99 27.185 101.558 27.737C101.126 28.283 100.91 29.084 100.91 30.14C100.91 31.124 101.126 31.886 101.558 32.426C101.99 32.966 102.62 33.236 103.448 33.236C103.982 33.236 104.441 33.119 104.825 32.885C105.215 32.645 105.515 32.3 105.725 31.85L107.867 32.498C107.495 33.374 106.919 34.055 106.139 34.541C105.365 35.027 104.51 35.27 103.574 35.27ZM100.226 30.743V29.105H106.913V30.743H100.226Z" fill="black"/>
</svg>
