<svg width="223" height="149" viewBox="0 0 223 149" fill="none" xmlns="http://www.w3.org/2000/svg">
<path d="M74.5 145.799C113.877 145.799 145.799 113.877 145.799 74.5C145.799 35.1227 113.877 3.20117 74.5 3.20117C35.1227 3.20117 3.20117 35.1227 3.20117 74.5C3.20117 113.877 35.1227 145.799 74.5 145.799Z" fill="#FFAF10"/>
<path d="M82.2498 110.536H50.8201V123.973H82.2498V110.536Z" fill="#445EA0"/>
<path d="M56.5944 110.536H50.8201V123.973H56.5944V110.536Z" fill="#2E4C89"/>
<path d="M96.9472 130.957C96.9472 131.757 96.2924 132.412 95.4921 132.412H37.5791C36.7788 132.412 36.1241 131.757 36.1241 130.957V125.137C36.1241 124.336 36.7788 123.682 37.5791 123.682H95.4921C96.2924 123.682 96.9472 124.336 96.9472 125.137V130.957Z" fill="#293D7C"/>
<path d="M41.8984 130.957V125.137C41.8984 124.336 42.5532 123.682 43.3535 123.682H37.5791C36.7788 123.682 36.1241 124.336 36.1241 125.137V130.957C36.1241 131.757 36.7788 132.412 37.5791 132.412H43.3535C42.5532 132.412 41.8984 131.757 41.8984 130.957Z" fill="#1A2B63"/>
<path d="M0 107.918C0 109.519 1.30957 110.829 2.91016 110.829H90.2658V91.3448H0V107.918Z" fill="#293D7C"/>
<path d="M5.77433 107.918V91.3448H0V107.918C0 109.519 1.30957 110.829 2.91016 110.829H8.68449C7.0839 110.829 5.77433 109.519 5.77433 107.918Z" fill="#1A2B63"/>
<path d="M90.2658 83.5177C90.2658 82.8757 90.7878 82.3536 91.4298 82.3536H133.071V19.3424C133.071 17.5829 131.632 16.1435 129.873 16.1435H3.19884C1.43936 16.1435 0 17.5829 0 19.3424V91.6359H90.2658V83.5177Z" fill="#445EA0"/>
<path d="M90.2658 83.5177C90.2658 82.8757 90.7879 82.3536 91.4299 82.3536H126.674V23.9963C126.674 23.196 126.019 22.5412 125.219 22.5412H7.85278C7.05249 22.5412 6.39771 23.196 6.39771 23.9963V83.7828C6.39771 84.5831 7.05249 85.2379 7.85278 85.2379H90.2655L90.2658 83.5177Z" fill="#EEF6FF"/>
<path d="M66.5349 105.383C68.7707 105.383 70.5832 103.57 70.5832 101.335C70.5832 99.0987 68.7707 97.2862 66.5349 97.2862C64.2991 97.2862 62.4866 99.0987 62.4866 101.335C62.4866 103.57 64.2991 105.383 66.5349 105.383Z" fill="#445EA0"/>
<path d="M121.168 60.0586C121.168 60.8589 120.513 61.5137 119.712 61.5137H73.599C72.7987 61.5137 72.1439 60.8589 72.1439 60.0586V38.8966C72.1439 38.0963 72.7987 37.4415 73.599 37.4415H119.712C120.513 37.4415 121.168 38.0963 121.168 38.8966V60.0586Z" fill="#FFAF10"/>
<path d="M77.9186 60.0586V38.8966C77.9186 38.0963 78.5733 37.4415 79.3736 37.4415H73.5993C72.799 37.4415 72.1442 38.0963 72.1442 38.8966V60.0586C72.1442 60.8589 72.799 61.5137 73.5993 61.5137H79.3736C78.5733 61.5137 77.9186 60.8589 77.9186 60.0586Z" fill="#FF9518"/>
<path d="M87.0911 69.879H74.5448C73.3394 69.879 72.3622 68.902 72.3622 67.6964C72.3622 66.4907 73.3394 65.5137 74.5448 65.5137H87.0911C88.2965 65.5137 89.2737 66.4907 89.2737 67.6964C89.2737 68.902 88.2965 69.879 87.0911 69.879Z" fill="#C3DDF4"/>
<path d="M87.0911 76.5127H74.5448C73.3394 76.5127 72.3622 75.5357 72.3622 74.33C72.3622 73.1244 73.3394 72.1474 74.5448 72.1474H87.0911C88.2965 72.1474 89.2737 73.1244 89.2737 74.33C89.2737 75.5357 88.2965 76.5127 87.0911 76.5127Z" fill="#C3DDF4"/>
<path d="M102.228 69.879H92.898C91.6926 69.879 90.7154 68.902 90.7154 67.6964C90.7154 66.4907 91.6926 65.5137 92.898 65.5137H102.228C103.433 65.5137 104.411 66.4907 104.411 67.6964C104.411 68.902 103.433 69.879 102.228 69.879Z" fill="#C3DDF4"/>
<path d="M102.228 76.5127H92.898C91.6926 76.5127 90.7154 75.5357 90.7154 74.33C90.7154 73.1244 91.6926 72.1474 92.898 72.1474H102.228C103.433 72.1474 104.411 73.1244 104.411 74.33C104.411 75.5357 103.433 76.5127 102.228 76.5127Z" fill="#C3DDF4"/>
<path d="M119.832 69.879H107.948C106.743 69.879 105.766 68.902 105.766 67.6964C105.766 66.4907 106.743 65.5137 107.948 65.5137H119.832C121.037 65.5137 122.015 66.4907 122.015 67.6964C122.015 68.902 121.037 69.879 119.832 69.879Z" fill="#C3DDF4"/>
<path d="M119.832 76.5127H107.948C106.743 76.5127 105.766 75.5357 105.766 74.33C105.766 73.1244 106.743 72.1474 107.948 72.1474H119.832C121.037 72.1474 122.015 73.1244 122.015 74.33C122.015 75.5357 121.037 76.5127 119.832 76.5127Z" fill="#C3DDF4"/>
<path d="M104.581 32.3272C104.581 33.1275 103.926 33.7823 103.126 33.7823H99.9249C99.1246 33.7823 98.4698 33.1275 98.4698 32.3272V29.1263C98.4698 28.326 99.1246 27.6712 99.9249 27.6712H103.126C103.926 27.6712 104.581 28.326 104.581 29.1263V32.3272Z" fill="#EF8318"/>
<path d="M112.729 32.3272C112.729 33.1275 112.074 33.7823 111.274 33.7823H108.073C107.272 33.7823 106.618 33.1275 106.618 32.3272V29.1263C106.618 28.326 107.272 27.6712 108.073 27.6712H111.274C112.074 27.6712 112.729 28.326 112.729 29.1263V32.3272Z" fill="#EF8318"/>
<path d="M120.877 32.3272C120.877 33.1275 120.222 33.7823 119.421 33.7823H116.221C115.42 33.7823 114.766 33.1275 114.766 32.3272V29.1263C114.766 28.326 115.42 27.6712 116.221 27.6712H119.421C120.222 27.6712 120.877 28.326 120.877 29.1263V32.3272Z" fill="#EF8318"/>
<path d="M55.5543 74.7925H52.9352C51.7298 74.7925 50.7526 73.8155 50.7526 72.6098C50.7526 71.4042 51.7298 70.4272 52.9352 70.4272H55.5543C56.7597 70.4272 57.7369 71.4042 57.7369 72.6098C57.7369 73.8155 56.7597 74.7925 55.5543 74.7925Z" fill="#69CDFF"/>
<path d="M45.6598 74.7925H43.0406C41.8352 74.7925 40.858 73.8155 40.858 72.6098C40.858 71.4042 41.8352 70.4272 43.0406 70.4272H45.6598C46.8651 70.4272 47.8424 71.4042 47.8424 72.6098C47.8424 73.8155 46.8651 74.7925 45.6598 74.7925Z" fill="#69CDFF"/>
<path d="M35.765 74.7925H33.1458C31.9404 74.7925 30.9632 73.8155 30.9632 72.6098C30.9632 71.4042 31.9404 70.4272 33.1458 70.4272H35.765C36.9703 70.4272 37.9476 71.4042 37.9476 72.6098C37.9479 73.8155 36.9706 74.7925 35.765 74.7925Z" fill="#69CDFF"/>
<path d="M25.8704 74.7925H23.2513C22.0459 74.7925 21.0687 73.8155 21.0687 72.6098C21.0687 71.4042 22.0459 70.4272 23.2513 70.4272H25.8704C27.0758 70.4272 28.053 71.4042 28.053 72.6098C28.053 73.8155 27.0761 74.7925 25.8704 74.7925Z" fill="#69CDFF"/>
<path d="M64.0665 65.8004C62.8611 65.8004 61.8839 64.8234 61.8839 63.6178V60.9986C61.8839 59.7932 62.8611 58.816 64.0665 58.816C65.2719 58.816 66.2491 59.7932 66.2491 60.9986V63.6178C66.2491 64.8234 65.2719 65.8004 64.0665 65.8004Z" fill="#69CDFF"/>
<path d="M64.0665 55.9058C62.8611 55.9058 61.8839 54.9289 61.8839 53.7232V51.1041C61.8839 49.8987 62.8611 48.9215 64.0665 48.9215C65.2719 48.9215 66.2491 49.8987 66.2491 51.1041V53.7232C66.2491 54.9289 65.2719 55.9058 64.0665 55.9058Z" fill="#69CDFF"/>
<path d="M64.0665 46.0113C62.8611 46.0113 61.8839 45.0344 61.8839 43.8287V41.2096C61.8839 40.0042 62.8611 39.0269 64.0665 39.0269C65.2719 39.0269 66.2491 40.0042 66.2491 41.2096V43.8287C66.2491 45.0344 65.2719 46.0113 64.0665 46.0113Z" fill="#69CDFF"/>
<path d="M14.5936 65.8004C13.3882 65.8004 12.4109 64.8234 12.4109 63.6178V60.9986C12.4109 59.7932 13.3882 58.816 14.5936 58.816C15.799 58.816 16.7762 59.7932 16.7762 60.9986V63.6178C16.7762 64.8234 15.7992 65.8004 14.5936 65.8004Z" fill="#69CDFF"/>
<path d="M14.5936 55.9058C13.3882 55.9058 12.4109 54.9289 12.4109 53.7232V51.1041C12.4109 49.8987 13.3882 48.9215 14.5936 48.9215C15.799 48.9215 16.7762 49.8987 16.7762 51.1041V53.7232C16.7762 54.9289 15.7992 55.9058 14.5936 55.9058Z" fill="#69CDFF"/>
<path d="M14.5936 46.0113C13.3882 46.0113 12.4109 45.0344 12.4109 43.8287V41.2096C12.4109 40.0042 13.3882 39.0269 14.5936 39.0269C15.799 39.0269 16.7762 40.0042 16.7762 41.2096V43.8287C16.7762 45.0344 15.7992 46.0113 14.5936 46.0113Z" fill="#69CDFF"/>
<path d="M55.5543 35.2143H52.9352C51.7298 35.2143 50.7526 34.2374 50.7526 33.0317C50.7526 31.826 51.7298 30.8491 52.9352 30.8491H55.5543C56.7597 30.8491 57.7369 31.826 57.7369 33.0317C57.7369 34.2374 56.7597 35.2143 55.5543 35.2143Z" fill="#69CDFF"/>
<path d="M45.6598 35.2143H43.0406C41.8352 35.2143 40.858 34.2374 40.858 33.0317C40.858 31.826 41.8352 30.8491 43.0406 30.8491H45.6598C46.8651 30.8491 47.8424 31.826 47.8424 33.0317C47.8424 34.2374 46.8651 35.2143 45.6598 35.2143Z" fill="#69CDFF"/>
<path d="M35.765 35.2143H33.1458C31.9404 35.2143 30.9632 34.2374 30.9632 33.0317C30.9632 31.826 31.9404 30.8491 33.1458 30.8491H35.765C36.9703 30.8491 37.9476 31.826 37.9476 33.0317C37.9476 34.2374 36.9706 35.2143 35.765 35.2143Z" fill="#69CDFF"/>
<path d="M25.8704 35.2143H23.2513C22.0459 35.2143 21.0687 34.2374 21.0687 33.0317C21.0687 31.826 22.0459 30.8491 23.2513 30.8491H25.8704C27.0758 30.8491 28.053 31.826 28.053 33.0317C28.053 34.2374 27.0761 35.2143 25.8704 35.2143Z" fill="#69CDFF"/>
<path d="M58.2462 65.3345C58.2462 66.1348 57.5914 66.7895 56.7911 66.7895H21.8692C21.0689 66.7895 20.4142 66.1348 20.4142 65.3345V40.3071C20.4142 39.5068 21.0689 38.852 21.8692 38.852H56.7911C57.5914 38.852 58.2462 39.5068 58.2462 40.3071V65.3345Z" fill="#5DC1D8"/>
<path d="M26.1885 65.3345V40.3071C26.1885 39.5068 26.8433 38.852 27.6436 38.852H21.869C21.0687 38.852 20.4139 39.5068 20.4139 40.3071V65.3345C20.4139 66.1348 21.0687 66.7895 21.869 66.7895H27.6436C26.8433 66.7895 26.1885 66.1348 26.1885 65.3345Z" fill="#28A5A5"/>
<path d="M68.1399 35.2155C68.1399 36.0158 67.4851 36.6706 66.6848 36.6706H60.5735C59.7732 36.6706 59.1184 36.0158 59.1184 35.2155V29.1042C59.1184 28.3039 59.7732 27.6491 60.5735 27.6491H66.6848C67.4851 27.6491 68.1399 28.3039 68.1399 29.1042V35.2155Z" fill="#52BBEF"/>
<path d="M19.8313 35.7975C19.8313 36.5978 19.1765 37.2526 18.3762 37.2526H12.2649C11.4646 37.2526 10.8098 36.5978 10.8098 35.7975V29.6862C10.8098 28.8859 11.4646 28.2311 12.2649 28.2311H18.3762C19.1765 28.2311 19.8313 28.8859 19.8313 29.6862V35.7975Z" fill="#52BBEF"/>
<path d="M68.1399 75.921C68.1399 76.7213 67.4851 77.3761 66.6848 77.3761H60.5735C59.7732 77.3761 59.1184 76.7213 59.1184 75.921V69.8097C59.1184 69.0094 59.7732 68.3546 60.5735 68.3546H66.6848C67.4851 68.3546 68.1399 69.0094 68.1399 69.8097V75.921Z" fill="#52BBEF"/>
<path d="M19.8313 75.921C19.8313 76.7213 19.1765 77.3761 18.3762 77.3761H12.2649C11.4646 77.3761 10.8098 76.7213 10.8098 75.921V69.8097C10.8098 69.0094 11.4646 68.3546 12.2649 68.3546H18.3762C19.1765 68.3546 19.8313 69.0094 19.8313 69.8097V75.921Z" fill="#52BBEF"/>
<path d="M62.326 35.2155V29.1042C62.326 28.3039 62.9807 27.6491 63.781 27.6491H60.5735C59.7732 27.6491 59.1184 28.3039 59.1184 29.1042V35.2155C59.1184 36.0158 59.7732 36.6706 60.5735 36.6706H63.781C62.9807 36.6706 62.326 36.0158 62.326 35.2155Z" fill="#1E99D6"/>
<path d="M14.0174 35.7975V29.6862C14.0174 28.8859 14.6721 28.2311 15.4724 28.2311H12.2649C11.4646 28.2311 10.8098 28.8859 10.8098 29.6862V35.7975C10.8098 36.5978 11.4646 37.2526 12.2649 37.2526H15.4724C14.6721 37.2526 14.0174 36.5978 14.0174 35.7975Z" fill="#1E99D6"/>
<path d="M62.326 75.921V69.8097C62.326 69.0094 62.9807 68.3546 63.781 68.3546H60.5735C59.7732 68.3546 59.1184 69.0094 59.1184 69.8097V75.921C59.1184 76.7213 59.7732 77.3761 60.5735 77.3761H63.781C62.9807 77.3761 62.326 76.7213 62.326 75.921Z" fill="#1E99D6"/>
<path d="M14.0174 75.921V69.8097C14.0174 69.0094 14.6721 68.3546 15.4724 68.3546H12.2649C11.4646 68.3546 10.8098 69.0094 10.8098 69.8097V75.921C10.8098 76.7213 11.4646 77.3761 12.2649 77.3761H15.4724C14.6721 77.3761 14.0174 76.7213 14.0174 75.921Z" fill="#1E99D6"/>
<path d="M126.725 106.737C126.68 106.614 126.683 106.544 126.69 106.521C126.69 106.521 126.708 106.52 126.724 106.52C126.758 106.52 126.816 106.526 126.903 106.559L139.156 111.059V83.518C139.156 82.7177 138.501 82.0629 137.701 82.0629H91.4295C90.6292 82.0629 89.9745 82.7177 89.9745 83.518V116.927C89.9745 117.727 90.6292 118.382 91.4295 118.382H131.002L126.725 106.737Z" fill="#5DC1D8"/>
<path d="M95.7491 116.926V83.5177C95.7491 82.7174 96.4039 82.0626 97.2042 82.0626H91.4298C90.6295 82.0626 89.9748 82.7174 89.9748 83.5177V116.926C89.9748 117.727 90.6295 118.381 91.4298 118.381H97.2042C96.4039 118.381 95.7491 117.727 95.7491 116.926Z" fill="#28A5A5"/>
<path d="M127.004 106.285C126.524 106.109 126.276 106.357 126.452 106.837L134.124 127.727C134.301 128.206 134.74 128.303 135.101 127.942L139.175 123.868C139.536 123.507 140.127 123.507 140.489 123.868L145.182 128.563C145.543 128.924 146.134 128.924 146.496 128.563L148.729 126.329C149.09 125.968 149.09 125.377 148.729 125.016L144.035 120.322C143.674 119.961 143.674 119.37 144.035 119.008L148.108 114.935C148.47 114.574 148.373 114.134 147.893 113.958L127.004 106.285Z" fill="#293D7C"/>
<g clip-path="url(#clip0)">
<path d="M166.84 84.4654C166.84 84.4654 166.921 113.377 166.84 116.479C166.921 119.447 169.35 121.829 172.338 121.829H199.923L218.229 103.522V84.4654H166.84Z" fill="#E0E0E2"/>
<path d="M193.68 128.072H222.163V99.5883L193.68 128.072ZM216.115 122.141H206.972L216.115 112.998V122.141Z" fill="#FFCA10"/>
<path d="M219.375 102.377V128.072H222.163V99.5883L219.375 102.377Z" fill="#FFA304"/>
<path d="M215.793 76.03L213.193 73.4299C212.523 72.7604 211.438 72.7604 210.768 73.4299L208.519 75.6794L213.543 80.7038L215.793 78.4544C216.462 77.7848 216.462 76.6995 215.793 76.03Z" fill="#546F7A"/>
<path d="M215.793 76.03L214.118 74.3554C214.787 75.0249 214.787 76.1104 214.118 76.7798L211.868 79.0291L213.543 80.7039L215.793 78.4545C216.462 77.7848 216.462 76.6995 215.793 76.03Z" fill="#475D63"/>
<path d="M213.542 80.7033L208.518 75.679L205.8 78.3972L210.824 83.4215L213.542 80.7033Z" fill="#FF6137"/>
<path d="M213.543 80.703L211.869 79.0285L209.151 81.7468L210.825 83.4212L213.543 80.703Z" fill="#E04F32"/>
<path d="M184.555 104.668L192.312 101.929L187.293 96.9103L184.555 104.668Z" fill="#FFC89F"/>
<path d="M190.643 100.26L185.465 102.088L184.555 104.668L192.312 101.929L190.643 100.26Z" fill="#F7B081"/>
<path d="M192.32 101.927L210.824 83.4232L205.8 78.3989L187.296 96.9026L192.32 101.927Z" fill="#FFD039"/>
<path d="M192.32 101.927L210.824 83.4233L209.151 81.7504L190.647 100.254L192.32 101.927Z" fill="#FFA304"/>
<path d="M172.58 110.887V75.3522C169.408 75.3522 166.837 77.9237 166.837 81.0958V116.63C166.837 113.458 169.408 110.887 172.58 110.887Z" fill="#919191"/>
<path d="M181.431 104.668H184.555L187.296 96.9023L199.733 84.4654H196.61L184.173 96.9023L181.431 104.668Z" fill="#C6C5CA"/>
<path d="M215.441 84.4654V106.311L218.23 103.522V84.4654H215.441Z" fill="#C6C5CA"/>
<path d="M184.555 104.668L188.175 103.39L185.833 101.048L184.555 104.668Z" fill="#3C5156"/>
<path d="M216.436 112.225C216.123 112.096 215.763 112.167 215.524 112.407L206.381 121.55C206.142 121.789 206.07 122.149 206.2 122.461C206.329 122.774 206.634 122.978 206.973 122.978H216.115C216.578 122.978 216.952 122.603 216.952 122.141V112.998C216.952 112.66 216.748 112.355 216.436 112.225ZM215.279 121.305H208.992L215.279 115.018L215.279 121.305Z" fill="black"/>
<path d="M222.484 98.8153C222.171 98.6857 221.811 98.7573 221.572 98.9966L219.066 101.502V84.4655C219.066 84.0034 218.692 83.6289 218.23 83.6289H211.801L214.135 81.2955C214.135 81.2951 214.135 81.2947 214.136 81.2944L216.384 79.046C216.866 78.5642 217.131 77.9234 217.131 77.2421C217.131 76.5608 216.866 75.9202 216.384 75.4383L213.784 72.8383C213.303 72.3566 212.662 72.0913 211.98 72.0913C211.299 72.0913 210.658 72.3566 210.177 72.8383L207.927 75.0878L205.209 77.806L199.386 83.6288H173.417V75.3521C173.417 74.89 173.042 74.5155 172.58 74.5155C168.952 74.5157 166 77.4673 166 81.0957V116.63C166 116.692 166.007 116.752 166.02 116.81C166.135 118.35 166.801 119.78 167.915 120.866C169.105 122.026 170.675 122.666 172.338 122.666H197.903L193.088 127.48C192.849 127.72 192.777 128.08 192.907 128.392C193.036 128.705 193.341 128.909 193.68 128.909H222.163C222.625 128.909 223 128.534 223 128.072V99.5883C223 99.2499 222.796 98.9448 222.484 98.8153ZM208.519 76.8627L212.36 80.704L210.825 82.2391L206.984 78.3978L208.519 76.8627ZM211.36 74.0216C211.702 73.6794 212.259 73.6794 212.601 74.0216L215.201 76.6217C215.543 76.9638 215.543 77.5208 215.201 77.863L213.543 79.5209L209.702 75.6795L211.36 74.0216ZM195.699 127.235L200.513 122.422C200.513 122.421 200.514 122.421 200.514 122.421L202.654 120.281L204.15 118.785C204.477 118.458 204.477 117.928 204.15 117.602C204.112 117.564 204.072 117.532 204.03 117.503C203.704 117.28 203.256 117.313 202.967 117.602L199.576 120.992H172.338C169.8 120.992 167.758 119.011 167.677 116.479C167.682 116.32 167.694 116.162 167.714 116.006C167.714 116.005 167.714 116.004 167.715 116.003C167.724 115.929 167.735 115.856 167.748 115.782C167.749 115.774 167.751 115.766 167.752 115.757C167.764 115.692 167.777 115.627 167.792 115.562C167.796 115.544 167.8 115.526 167.804 115.508C167.817 115.453 167.83 115.399 167.845 115.345C167.853 115.316 167.862 115.286 167.87 115.257C167.882 115.215 167.895 115.172 167.909 115.13C167.922 115.088 167.936 115.047 167.951 115.005C167.961 114.976 167.971 114.947 167.982 114.918C168.002 114.864 168.024 114.809 168.046 114.756C168.053 114.74 168.059 114.724 168.065 114.709C168.094 114.642 168.124 114.576 168.155 114.511C168.156 114.508 168.158 114.505 168.159 114.502C168.813 113.148 170.072 112.139 171.582 111.825C171.587 111.824 171.591 111.823 171.595 111.823C171.664 111.808 171.734 111.796 171.805 111.785C171.816 111.783 171.828 111.781 171.84 111.779C171.903 111.769 171.968 111.762 172.032 111.755C172.05 111.753 172.068 111.75 172.086 111.748C172.148 111.742 172.211 111.738 172.273 111.734C172.293 111.733 172.313 111.73 172.333 111.729C172.415 111.725 172.497 111.723 172.58 111.723C173.042 111.723 173.417 111.349 173.417 110.887V104.82C173.417 104.358 173.042 103.984 172.58 103.984C172.118 103.984 171.743 104.358 171.743 104.82V110.103C170.331 110.281 169.019 110.911 167.985 111.921C167.877 112.027 167.773 112.138 167.673 112.25V81.0957C167.673 78.6754 169.435 76.6584 171.743 76.2601V84.4655V101.474V101.474C171.743 101.936 172.118 102.311 172.58 102.311C173.042 102.311 173.417 101.936 173.417 101.474V101.474V85.3022H197.713L193.088 89.9272C192.761 90.2541 192.761 90.7836 193.088 91.1104C193.415 91.437 193.944 91.437 194.271 91.1104L200.324 85.0571C200.325 85.0569 200.325 85.0567 200.325 85.0566L205.801 79.5809L209.642 83.4223L209.191 83.8729C209.191 83.8733 209.19 83.8736 209.19 83.8739L192.321 100.744L188.479 96.9022L191.804 93.5771C192.131 93.2502 192.131 92.7206 191.804 92.3939C191.478 92.0673 190.948 92.0673 190.621 92.3939L186.705 96.3107C186.684 96.3316 186.664 96.3537 186.646 96.3764C186.639 96.384 186.634 96.3921 186.628 96.4C186.616 96.4157 186.605 96.4316 186.594 96.448C186.588 96.4576 186.582 96.4674 186.577 96.4772C186.567 96.4928 186.558 96.5086 186.55 96.5247C186.545 96.5352 186.54 96.5458 186.535 96.5567C186.528 96.5731 186.521 96.5898 186.515 96.6065C186.512 96.6124 186.509 96.6179 186.507 96.6238L184.877 101.241L183.766 104.389C183.751 104.431 183.741 104.474 183.733 104.517H180.951C180.489 104.517 180.114 104.891 180.114 105.353C180.114 105.815 180.489 106.19 180.951 106.19H204.12C204.582 106.19 204.956 105.815 204.956 105.353C204.956 104.891 204.582 104.517 204.12 104.517H187.497L192.599 102.716C192.603 102.714 192.607 102.712 192.611 102.71C192.631 102.703 192.651 102.695 192.67 102.686C192.678 102.682 192.685 102.679 192.693 102.675C192.713 102.665 192.732 102.654 192.752 102.643C192.758 102.639 192.765 102.635 192.771 102.631C192.791 102.619 192.81 102.604 192.83 102.589C192.834 102.586 192.839 102.583 192.844 102.579C192.867 102.56 192.89 102.54 192.912 102.518L210.128 85.3022H217.393V103.175L205.425 115.143C205.099 115.47 205.099 116 205.425 116.326C205.446 116.347 205.467 116.366 205.489 116.384C205.642 116.509 205.83 116.571 206.017 116.571C206.204 116.571 206.392 116.509 206.545 116.384C206.567 116.366 206.588 116.347 206.609 116.326L218.821 104.114C218.822 104.113 218.822 104.113 218.822 104.113L221.327 101.608V108.989H219.783C219.321 108.989 218.947 109.364 218.947 109.826C218.947 110.288 219.321 110.662 219.783 110.662H221.327V113.184H219.783C219.321 113.184 218.947 113.558 218.947 114.02C218.947 114.482 219.321 114.857 219.783 114.857H221.327V117.378H219.783C219.321 117.378 218.947 117.752 218.947 118.214C218.947 118.677 219.321 119.051 219.783 119.051H221.327V121.572H219.783C219.321 121.572 218.947 121.947 218.947 122.409C218.947 122.871 219.321 123.246 219.783 123.246H221.327V127.236L195.699 127.235ZM188.394 102.425L186.797 100.829L187.643 98.4323L190.79 101.579L188.394 102.425Z" fill="black"/>
</g>
<defs>
<clipPath id="clip0">
<rect width="57" height="57" fill="white" transform="translate(166 72)"/>
</clipPath>
</defs>
</svg>
