<svg width="218" height="143" viewBox="0 0 218 143" fill="none" xmlns="http://www.w3.org/2000/svg">
<path d="M15.1406 85.4688H21.375L24.5686 82.2752C24.734 82.1098 24.9303 81.9786 25.1464 81.889C25.3626 81.7995 25.5942 81.7534 25.8281 81.7534C26.062 81.7534 26.2937 81.7995 26.5098 81.889C26.7259 81.9786 26.9223 82.1098 27.0877 82.2752L27.2404 82.4279C27.4058 82.5933 27.5371 82.7897 27.6266 83.0058C27.7161 83.2219 27.7622 83.4536 27.7622 83.6875C27.7622 83.9214 27.7161 84.1531 27.6266 84.3692C27.5371 84.5853 27.4058 84.7817 27.2404 84.9471L23.1562 89.0313H15.1406V85.4688Z" fill="#6A7073"/>
<path d="M14.25 84.5781C16.2175 84.5781 17.8125 82.9831 17.8125 81.0156C17.8125 79.0481 16.2175 77.4531 14.25 77.4531C12.2825 77.4531 10.6875 79.0481 10.6875 81.0156C10.6875 82.9831 12.2825 84.5781 14.25 84.5781Z" fill="#7E8589"/>
<path d="M22.2656 95.2656V107.734H18.7031V99.7188C18.7031 99.2463 18.5155 98.7933 18.1814 98.4592C17.8474 98.1252 17.3943 97.9375 16.9219 97.9375C16.4495 97.9375 15.9964 98.1252 15.6623 98.4592C15.3283 98.7933 15.1406 99.2463 15.1406 99.7188V114.859H11.5781V97.9375H9.79688C9.32446 97.9375 8.87139 97.7498 8.53734 97.4158C8.20329 97.0817 8.01562 96.6287 8.01562 96.1562V89.0312L11.5781 84.5781H16.9219V93.4844H20.4844C20.9568 93.4844 21.4099 93.672 21.7439 94.0061C22.078 94.3401 22.2656 94.7932 22.2656 95.2656Z" fill="#7E8589"/>
<path d="M42.75 84.5781L43.6406 83.6875H38.2969L39.1875 84.5781C39.1875 84.5781 40.0781 89.0312 37.4062 91.7031V95.2656H44.5312V91.7031C41.8594 89.0312 42.75 84.5781 42.75 84.5781Z" fill="#E6BE34"/>
<path d="M54.3281 98.8281V127.328H2.67188V120.203H11.5781V113.078H18.7031V105.953H27.6094V98.8281H54.3281Z" fill="#AD6643"/>
<path d="M36.5156 91.7031H45.4219C45.8943 91.7031 46.3474 91.8908 46.6814 92.2248C47.0155 92.5589 47.2031 93.012 47.2031 93.4844V98.8281H34.7344V93.4844C34.7344 93.012 34.922 92.5589 35.2561 92.2248C35.5901 91.8908 36.0432 91.7031 36.5156 91.7031Z" fill="#7E8589"/>
<path d="M36.5156 75.6719H45.4219V81.0156C45.4219 81.9605 45.0465 82.8666 44.3784 83.5347C43.7103 84.2028 42.8042 84.5781 41.8594 84.5781H40.0781C39.1333 84.5781 38.2272 84.2028 37.5591 83.5347C36.891 82.8666 36.5156 81.9605 36.5156 81.0156V75.6719Z" fill="#F2C837"/>
<path d="M38.2969 95.2656H43.6406V98.8281H38.2969V95.2656Z" fill="#E6BE34"/>
<path d="M54.3281 97.9375H48.0938V93.4844C48.0929 92.776 47.8112 92.0969 47.3103 91.596C46.8094 91.0951 46.1302 90.8133 45.4219 90.8125H44.9209C43.2968 88.9251 43.4503 86.1298 43.5693 85.1268C44.315 84.8147 44.9623 84.3065 45.4425 83.6562C47.4179 83.5202 49.0744 82.9354 50.2701 81.9433C51.4681 80.9495 52.1551 79.5777 52.1551 78.1804C52.155 76.2106 50.8213 74.7812 48.9844 74.7812C48.0198 74.7674 47.0786 75.0787 46.3125 75.665C46.3107 75.4299 46.216 75.2052 46.0492 75.0396C45.8824 74.8741 45.6569 74.7812 45.4219 74.7812H36.5156C36.2806 74.7812 36.0551 74.8741 35.8883 75.0396C35.7215 75.2052 35.6268 75.4299 35.625 75.665C34.8589 75.0787 33.9177 74.7674 32.9531 74.7812C31.1162 74.7812 29.7825 76.2106 29.7825 78.1799C29.7825 79.5777 30.4695 80.9495 31.6675 81.9433C32.8632 82.9354 34.5197 83.5202 36.4951 83.6562C36.9753 84.3065 37.6226 84.8147 38.3683 85.1268C38.4874 86.1298 38.6408 88.9251 37.0167 90.8125H36.5156C35.8073 90.8133 35.1281 91.0951 34.6272 91.596C34.1263 92.0969 33.8446 92.776 33.8438 93.4844V97.9375H27.6094C27.3732 97.9375 27.1466 98.0313 26.9796 98.1983C26.8126 98.3654 26.7188 98.5919 26.7188 98.8281V105.062H23.1562V95.2656C23.1554 94.5572 22.8737 93.8781 22.3728 93.3772C21.8719 92.8763 21.1927 92.5946 20.4844 92.5937H17.8125V89.9219H23.1117C23.2429 89.9222 23.3729 89.8966 23.4941 89.8464C23.6153 89.7962 23.7254 89.7224 23.8179 89.6294L27.7941 85.6532C28.3117 85.1311 28.6014 84.4252 28.5999 83.69C28.5983 82.9547 28.3055 82.2501 27.7856 81.7302C27.2657 81.2103 26.5611 80.9176 25.8259 80.916C25.0906 80.9144 24.3847 81.2041 23.8626 81.7218L21.0062 84.5781H17.8125C17.8126 84.3539 17.7276 84.1379 17.5748 83.9738C18.1462 83.3325 18.52 82.5397 18.6511 81.6908C18.7822 80.8419 18.6649 79.9733 18.3135 79.1895C17.9621 78.4057 17.3916 77.7403 16.6706 77.2734C15.9497 76.8066 15.109 76.5582 14.2501 76.5582C13.3912 76.5582 12.5506 76.8066 11.8296 77.2734C11.1086 77.7403 10.5381 78.4057 10.1867 79.1895C9.83529 79.9733 9.71807 80.8419 9.84914 81.6908C9.98021 82.5397 10.354 83.3325 10.9254 83.9738C10.9109 83.9895 10.8961 84.0048 10.8827 84.0215L7.32016 88.4746C7.19377 88.6326 7.12494 88.8289 7.125 89.0312V96.1562C7.12582 96.8646 7.40759 97.5437 7.90849 98.0446C8.40938 98.5455 9.0885 98.8273 9.79688 98.8281H10.6875V119.312H2.67188C2.43567 119.312 2.20913 119.406 2.04211 119.573C1.87508 119.74 1.78125 119.967 1.78125 120.203V127.328C1.78125 127.564 1.87508 127.791 2.04211 127.958C2.20913 128.125 2.43567 128.219 2.67188 128.219H54.3281C54.5643 128.219 54.7909 128.125 54.9579 127.958C55.1249 127.791 55.2188 127.564 55.2188 127.328V98.8281C55.2188 98.5919 55.1249 98.3654 54.9579 98.1983C54.7909 98.0313 54.5643 97.9375 54.3281 97.9375ZM46.3125 81.0156V78.5089C46.4957 78.0741 47.2573 76.5625 48.9844 76.5625C49.6253 76.5625 50.3738 76.9861 50.3738 78.1799C50.3738 79.046 49.9214 79.918 49.1327 80.5724C48.408 81.1736 47.4271 81.5795 46.2466 81.7738C46.2901 81.5234 46.3122 81.2697 46.3125 81.0156ZM32.8048 80.5724C32.0161 79.918 31.5637 79.046 31.5637 78.1799C31.5637 76.9861 32.3122 76.5625 32.9531 76.5625C34.6766 76.5625 35.4373 78.0641 35.625 78.5094V81.0156C35.6253 81.2697 35.6474 81.5234 35.6909 81.7738C34.5104 81.5795 33.5295 81.1736 32.8048 80.5724ZM17.8125 86.3594H21.3305C21.4617 86.3597 21.5916 86.3341 21.7128 86.2839C21.834 86.2337 21.9441 86.1599 22.0366 86.0669L25.1222 82.9813C25.3095 82.794 25.5635 82.6888 25.8283 82.6888C26.0932 82.6888 26.3472 82.794 26.5345 82.9813C26.7218 83.1686 26.827 83.4226 26.827 83.6875C26.827 83.9523 26.7218 84.2064 26.5345 84.3936L22.7874 88.1406H17.8125V86.3594ZM37.4062 81.0156V76.5625H44.5312V81.0156C44.5305 81.724 44.2487 82.4031 43.7478 82.904C43.2469 83.4049 42.5678 83.6867 41.8594 83.6875H40.0781C39.3697 83.6867 38.6906 83.4049 38.1897 82.904C37.6888 82.4031 37.407 81.724 37.4062 81.0156V81.0156ZM40.1921 85.4687H41.7454C41.6551 86.7302 41.7053 88.8961 42.7628 90.8125H39.1747C40.2322 88.8961 40.2824 86.7302 40.1921 85.4687ZM35.625 93.4844C35.6253 93.2482 35.7192 93.0219 35.8861 92.8549C36.0531 92.6879 36.2795 92.594 36.5156 92.5937H45.4219C45.658 92.594 45.8844 92.6879 46.0514 92.8549C46.2183 93.0219 46.3122 93.2482 46.3125 93.4844V97.9375H44.5312V95.2656C44.5312 95.0294 44.4374 94.8029 44.2704 94.6358C44.1034 94.4688 43.8768 94.375 43.6406 94.375H38.2969C38.0607 94.375 37.8341 94.4688 37.6671 94.6358C37.5001 94.8029 37.4062 95.0294 37.4062 95.2656V97.9375H35.625V93.4844ZM42.75 96.1562V97.9375H39.1875V96.1562H42.75ZM14.25 78.3437C14.7784 78.3437 15.295 78.5004 15.7344 78.794C16.1738 79.0876 16.5163 79.5049 16.7185 79.9931C16.9207 80.4813 16.9736 81.0186 16.8705 81.5369C16.7674 82.0552 16.513 82.5312 16.1393 82.9049C15.7656 83.2786 15.2896 83.5331 14.7713 83.6361C14.253 83.7392 13.7157 83.6863 13.2275 83.4841C12.7393 83.2819 12.322 82.9394 12.0284 82.5C11.7348 82.0606 11.5781 81.5441 11.5781 81.0156C11.5789 80.3072 11.8607 79.6281 12.3616 79.1272C12.8625 78.6263 13.5416 78.3446 14.25 78.3437V78.3437ZM9.79688 97.0469C9.56075 97.0466 9.33437 96.9527 9.1674 96.7857C9.00043 96.6187 8.90652 96.3924 8.90625 96.1562V89.3436L12.0062 85.4687H16.0312V93.4844C16.0312 93.7206 16.1251 93.9471 16.2921 94.1141C16.4591 94.2811 16.6857 94.375 16.9219 94.375H20.4844C20.7205 94.3752 20.9469 94.4692 21.1138 94.6361C21.2808 94.8031 21.3747 95.0295 21.375 95.2656V105.062H19.5938V99.7187C19.5937 99.0101 19.3123 98.3305 18.8112 97.8294C18.3101 97.3284 17.6305 97.0469 16.9219 97.0469C16.2132 97.0469 15.5336 97.3284 15.0326 97.8294C14.5315 98.3305 14.25 99.0101 14.25 99.7187V112.187H12.4688V91.1813L13.9888 89.6612C14.073 89.5789 14.1401 89.4806 14.1861 89.3722C14.2321 89.2637 14.2561 89.1472 14.2568 89.0294C14.2574 88.9117 14.2347 88.7949 14.1899 88.6859C14.1452 88.577 14.0792 88.478 13.9959 88.3947C13.9126 88.3114 13.8136 88.2455 13.7047 88.2007C13.5957 88.1559 13.479 88.1332 13.3612 88.1339C13.2434 88.1345 13.1269 88.1585 13.0184 88.2045C12.91 88.2505 12.8117 88.3176 12.7294 88.4018L10.9481 90.183C10.7813 90.35 10.6875 90.5764 10.6875 90.8125V97.0469H9.79688ZM17.8125 99.7187V112.187H16.0312V99.7187C16.0312 99.4825 16.1251 99.256 16.2921 99.089C16.4591 98.9219 16.6857 98.8281 16.9219 98.8281C17.1581 98.8281 17.3846 98.9219 17.5516 99.089C17.7187 99.256 17.8125 99.4825 17.8125 99.7187ZM53.4375 126.437H3.5625V121.094H11.5781C11.8143 121.094 12.0409 121 12.2079 120.833C12.3749 120.666 12.4688 120.439 12.4688 120.203V113.969H18.7031C18.9393 113.969 19.1659 113.875 19.3329 113.708C19.4999 113.541 19.5938 113.314 19.5938 113.078V106.844H27.6094C27.8456 106.844 28.0721 106.75 28.2391 106.583C28.4062 106.416 28.5 106.189 28.5 105.953V99.7187H53.4375V126.437Z" fill="black"/>
<g clip-path="url(#clip0)">
<path d="M174.299 145.598C213.676 145.598 245.598 113.676 245.598 74.2988C245.598 34.9216 213.676 3 174.299 3C134.922 3 103 34.9216 103 74.2988C103 113.676 134.922 145.598 174.299 145.598Z" fill="#FFAF10"/>
<path d="M173.312 31.2812C173.312 22.6432 166.31 15.6406 157.672 15.6406H148.734H137.562C137.562 10.7049 143.332 6.70312 153.203 6.70312H171.078C175.299 6.70312 179.272 8.68948 181.803 12.0656C183.544 14.3871 184.484 17.2092 184.484 20.1094V44.6875L173.312 37.9844V31.2812Z" fill="#4D2817"/>
<path d="M186.719 65.2214V44.6875H191.188C196.123 44.6875 200.125 48.6893 200.125 53.625V62.5625C200.125 67.4982 196.123 71.5 191.188 71.5H185.135C186.151 69.5851 186.719 67.4401 186.719 65.2214Z" fill="#606060"/>
<path d="M126.391 62.5625V53.625C126.391 48.6893 130.392 44.6875 135.328 44.6875H137.562V62.5625H126.391Z" fill="#606060"/>
<path d="M148.734 22.3438V15.6406H157.672C166.31 15.6406 173.312 22.6432 173.312 31.2812V37.9844H164.375C155.737 37.9844 148.734 30.9818 148.734 22.3438Z" fill="#4D2817"/>
<path d="M148.734 22.3438C148.734 30.9818 155.737 37.9844 164.375 37.9844H150.969C142.331 37.9844 135.328 30.9818 135.328 22.3438V15.6406H137.562H148.734V22.3438Z" fill="#66351E"/>
<path d="M150.969 37.9844H137.562C135.161 37.9844 132.893 37.4258 130.859 36.4583V36.4337V36.4583C125.58 33.9469 121.922 28.5777 121.922 22.3438V15.6406H135.328V22.3438C135.328 30.9818 142.331 37.9844 150.969 37.9844Z" fill="#4D2817"/>
<path d="M175.547 6.70312H180.016C184.236 6.70312 188.209 8.68948 190.741 12.0656C192.481 14.3871 193.422 17.2092 193.422 20.1094V44.6875H191.188H184.484V20.1094C184.484 17.2092 183.544 14.3871 181.803 12.0656C179.272 8.68948 175.299 6.70312 171.078 6.70312H175.547Z" fill="#66351E"/>
<path d="M193.422 64.7969V55.8594C193.422 51.699 190.566 48.2335 186.719 47.2369V44.6875H191.188C196.123 44.6875 200.125 48.6893 200.125 53.625V62.5625C200.125 67.4982 196.123 71.5 191.188 71.5H190.338C192.213 69.8622 193.422 67.4826 193.422 64.7969Z" fill="#878787"/>
<path d="M135.328 44.6875H137.562V49.1562C132.627 49.1562 128.625 53.158 128.625 58.0938V62.5625H126.391V53.625C126.391 48.6893 130.392 44.6875 135.328 44.6875Z" fill="#878787"/>
<path d="M126.391 96.8691C120.172 99.3872 115.219 102.258 115.219 105.016V136.297H209.062V105.016C209.062 97.6109 173.312 89.375 173.312 89.375H150.969L126.391 96.8691Z" fill="#D0382A"/>
<path d="M126.391 103.572L150.969 96.0781H173.312C173.312 96.0781 204.862 103.349 208.68 110.367L209.062 105.016C209.062 97.6109 173.312 89.375 173.312 89.375H150.969L126.391 96.8691C120.172 99.3872 115.219 102.258 115.219 105.016L115.605 110.421C116.834 108.074 121.142 105.697 126.391 103.572V103.572Z" fill="#B33024"/>
<path d="M175.547 37.9844H137.562V65.2214C137.562 69.2008 139.33 72.9725 142.387 75.5196L152.895 81.2776C154.564 82.1937 156.434 82.6719 158.338 82.6719H165.946C167.847 82.6719 169.72 82.1937 171.389 81.2776L181.897 75.5196C184.951 72.9725 186.719 69.1986 186.719 65.2214V46.9219L175.547 37.9844Z" fill="#FCE0B9"/>
<path d="M171.386 81.2776C169.717 82.1937 167.847 82.6719 165.944 82.6719H158.335C156.434 82.6719 154.562 82.1937 152.893 81.2776L150.969 80.223V93.8437C157.138 100.013 167.143 100.013 173.312 93.8437V80.223L171.386 81.2776Z" fill="#FCE0B9"/>
<path d="M173.312 80.223L171.386 81.2776C169.717 82.1937 167.847 82.6719 165.944 82.6719H158.335C156.434 82.6719 154.562 82.1937 152.893 81.2776L150.969 80.223V93.8437C151.322 94.1968 151.69 94.523 152.066 94.8358L173.312 81.0765V80.223Z" fill="#F5CBA1"/>
<path d="M157.672 55.8594C158.905 55.8594 159.906 56.8604 159.906 58.0938V82.6719H158.338C156.436 82.6719 154.564 82.1937 152.895 81.2776L142.387 75.5196C139.33 72.9725 137.562 69.1986 137.562 65.2214V55.8594H157.672Z" fill="#F5CBA1"/>
<path d="M153.203 62.5625V81.4229V91.6094V111.719H121.922V73.7344C121.922 71.2654 119.922 69.2656 117.453 69.2656C114.984 69.2656 112.984 71.2654 112.984 73.7344V111.719H81.7031V62.5625H153.203Z" fill="#383838"/>
<path d="M117.453 69.2656C119.922 69.2656 121.922 71.2654 121.922 73.7344V111.719V127.359H112.984V111.719V73.7344C112.984 71.2654 114.984 69.2656 117.453 69.2656Z" fill="#383838"/>
<path d="M137.562 127.359V136.297H97.3438V127.359H112.984H121.922H137.562Z" fill="#383838"/>
<path d="M164.375 33.5156H173.312V37.9844H164.375C155.737 37.9844 148.734 30.9818 148.734 22.3438V17.875C148.734 26.5131 155.737 33.5156 164.375 33.5156Z" fill="#3D2012"/>
<path d="M150.969 33.5156H153.44C156.26 36.2773 160.116 37.9844 164.375 37.9844H150.969C142.331 37.9844 135.328 30.9818 135.328 22.3438V17.875C135.328 26.5131 142.331 33.5156 150.969 33.5156Z" fill="#4D2817"/>
<path d="M130.859 31.9895C132.893 32.957 135.161 33.5156 137.562 33.5156H140.034C142.853 36.2773 146.71 37.9844 150.969 37.9844H137.562C135.161 37.9844 132.893 37.4258 130.859 36.4583C125.58 33.9469 121.922 28.5777 121.922 22.3438V17.875C121.922 24.1111 125.58 29.4781 130.859 31.9895Z" fill="#3D2012"/>
<path d="M195.656 127.359L173.312 122.891H159.906C156.204 122.891 153.203 125.891 153.203 129.594V136.297H195.656V127.359Z" fill="#FCE0B9"/>
<path d="M126.391 68.0635V111.719H121.922V73.7344C121.922 71.2654 119.922 69.2656 117.453 69.2656C114.984 69.2656 112.984 71.2654 112.984 73.7344V111.719H108.516V68.0635C108.516 65.0248 112.517 62.5625 117.453 62.5625C122.389 62.5625 126.391 65.0248 126.391 68.0635Z" fill="#262626"/>
<path d="M137.562 131.828H97.3438V136.297H137.562V131.828Z" fill="#262626"/>
<path d="M173.312 57.5352C175.469 57.5352 177.223 55.7812 177.223 53.625C177.223 51.4688 175.469 49.7148 173.312 49.7148C171.156 49.7148 169.402 51.4688 169.402 53.625C169.402 55.7812 171.156 57.5352 173.312 57.5352ZM173.312 53.0664C173.621 53.0664 173.871 53.3167 173.871 53.625C173.871 54.2395 172.754 54.2395 172.754 53.625C172.754 53.3167 173.004 53.0664 173.312 53.0664Z" fill="black"/>
<path d="M150.969 57.5352C153.125 57.5352 154.879 55.7812 154.879 53.625C154.879 51.4688 153.125 49.7148 150.969 49.7148C148.813 49.7148 147.059 51.4688 147.059 53.625C147.059 55.7812 148.813 57.5352 150.969 57.5352ZM150.969 53.0664C151.277 53.0664 151.527 53.3167 151.527 53.625C151.527 54.2395 150.41 54.2395 150.41 53.625C150.41 53.3167 150.66 53.0664 150.969 53.0664Z" fill="black"/>
<path d="M81.7031 60.3281H124.156V53.625C124.156 49.9897 125.928 46.7856 128.625 44.7456V37.8012C123.292 34.7043 119.688 28.9441 119.688 22.3438V15.6406C119.688 14.4073 120.689 13.4062 121.922 13.4062H135.641C136.95 8.67161 142.518 4.46875 153.203 4.46875H171.078H180.016C184.913 4.46875 189.59 6.80814 192.528 10.725C194.546 13.413 195.656 16.7466 195.656 20.1094V43.3849C199.6 45.112 202.359 49.0535 202.359 53.625V62.5625C202.359 67.9563 198.514 72.4697 193.422 73.5087V92.7355C202.811 96.0267 211.297 100.301 211.297 105.016V136.297C211.297 137.53 210.296 138.531 209.062 138.531H137.562H97.3438C96.1104 138.531 95.1094 137.53 95.1094 136.297V127.359C95.1094 126.126 96.1104 125.125 97.3438 125.125H110.75V113.953H81.7031C80.4698 113.953 79.4688 112.952 79.4688 111.719V62.5625C79.4688 61.3291 80.4698 60.3281 81.7031 60.3281V60.3281ZM135.328 60.3281V46.9219C131.632 46.9219 128.625 49.9293 128.625 53.625V60.3281H135.328ZM171.078 83.8851C169.452 84.551 167.706 84.9062 165.944 84.9062H158.338C157.368 84.9062 156.394 84.7834 155.438 84.5711V94.4158C160.44 97.2825 166.726 96.6948 171.078 92.8785V83.8851ZM153.203 60.3281C154.436 60.3281 155.438 61.3291 155.438 62.5625V79.937C156.38 80.2588 157.364 80.4375 158.338 80.4375H165.944C167.467 80.4375 168.978 80.051 170.314 79.3203L180.623 73.6696C183.081 71.5447 184.484 68.4769 184.484 65.2214V46.9219C184.062 46.9219 183.691 46.7744 183.354 46.5711L183.334 46.6046L172.694 40.2188H139.797V60.3281H153.203ZM137.562 17.875V22.3438C137.562 29.7373 143.575 35.75 150.969 35.75H152.591C148.866 32.4722 146.5 27.6839 146.5 22.3438V17.875H137.562ZM150.969 22.3438C150.969 29.7373 156.981 35.75 164.375 35.75H171.078V31.2812C171.078 23.8877 165.065 17.875 157.672 17.875H150.969V22.3438ZM133.094 42.6788C133.815 42.5313 134.564 42.4531 135.328 42.4531V40.0646C134.566 39.9685 133.822 39.821 133.094 39.6311V42.6788ZM124.156 22.3438C124.156 29.7373 130.169 35.75 137.562 35.75H139.185C135.46 32.4722 133.094 27.6839 133.094 22.3438V17.875H124.156V22.3438ZM180.016 13.4062C177.918 10.6088 174.577 8.9375 171.078 8.9375H153.203C146.404 8.9375 142.141 10.9551 140.539 13.4062H157.672C167.528 13.4062 175.547 21.4254 175.547 31.2812V36.7197L182.25 40.7416V20.1094C182.25 17.7074 181.457 15.3256 180.016 13.4062ZM191.188 20.1094C191.188 17.7074 190.394 15.3256 188.953 13.4062C187.309 11.2121 184.9 9.71283 182.25 9.16541C182.728 9.6525 183.177 10.1731 183.591 10.725C185.608 13.413 186.719 16.7466 186.719 20.1094V42.4531H191.188V20.1094ZM197.891 62.5625V53.625C197.891 49.9293 194.883 46.9219 191.188 46.9219H188.953V65.2214C188.953 66.6067 188.75 67.9585 188.401 69.2656H191.188C194.883 69.2656 197.891 66.2582 197.891 62.5625V62.5625ZM188.953 73.7344H186.415C185.57 75.0303 184.545 76.219 183.325 77.2356C183.215 77.3295 183.095 77.4099 182.967 77.4792L175.547 81.5457V87.6031C179.249 88.4857 184.058 89.728 188.953 91.2563V73.7344ZM206.828 105.016C206.828 103.318 201.412 100.462 193.422 97.5618V124.633L196.094 125.17L195.216 129.551L193.422 129.192V134.062H206.828V105.016ZM155.438 134.062H188.953V128.298L173.091 125.125H159.906C157.442 125.125 155.438 127.129 155.438 129.594V134.062ZM139.797 127.359V134.062H150.969V129.594C150.969 124.665 154.977 120.656 159.906 120.656H173.312C173.46 120.656 173.605 120.67 173.75 120.701L188.953 123.74V96.0223C184.842 94.6794 180.282 93.3723 175.547 92.2082V93.8438C175.547 94.4359 175.312 95.0056 174.892 95.4235C171.4 98.9158 166.779 100.712 162.127 100.71C159.857 100.71 157.594 100.234 155.438 99.3671V111.719C155.438 112.952 154.436 113.953 153.203 113.953H124.156V125.125H137.562C138.796 125.125 139.797 126.126 139.797 127.359ZM99.5781 134.062H135.328V129.594H99.5781V134.062ZM119.688 125.125V73.7344C119.688 72.5032 118.684 71.5 117.453 71.5C116.222 71.5 115.219 72.5032 115.219 73.7344V125.125H119.688ZM83.9375 109.484H110.75V73.7344C110.75 70.0387 113.757 67.0312 117.453 67.0312C121.149 67.0312 124.156 70.0387 124.156 73.7344V109.484H150.969V64.7969H83.9375V109.484Z" fill="black"/>
</g>
<defs>
<clipPath id="clip0">
<rect width="143" height="143" fill="white" transform="matrix(-1 0 0 1 218 0)"/>
</clipPath>
</defs>
</svg>
