<svg width="66" height="30" viewBox="0 0 66 30" fill="none" xmlns="http://www.w3.org/2000/svg">
<rect x="0.5" y="0.5" width="65" height="29" rx="8.5" fill="black" stroke="white"/>
<path d="M16.6204 19.18C16.0004 19.18 15.4404 19.074 14.9404 18.862C14.4444 18.646 14.0344 18.34 13.7104 17.944C13.3904 17.544 13.1824 17.07 13.0864 16.522L14.3944 16.324C14.5264 16.852 14.8024 17.264 15.2224 17.56C15.6424 17.852 16.1324 17.998 16.6924 17.998C17.0404 17.998 17.3604 17.944 17.6524 17.836C17.9444 17.724 18.1784 17.566 18.3544 17.362C18.5344 17.154 18.6244 16.906 18.6244 16.618C18.6244 16.462 18.5964 16.324 18.5404 16.204C18.4884 16.084 18.4144 15.98 18.3184 15.892C18.2264 15.8 18.1124 15.722 17.9764 15.658C17.8444 15.59 17.6984 15.532 17.5384 15.484L15.3244 14.83C15.1084 14.766 14.8884 14.684 14.6644 14.584C14.4404 14.48 14.2344 14.346 14.0464 14.182C13.8624 14.014 13.7124 13.808 13.5964 13.564C13.4804 13.316 13.4224 13.016 13.4224 12.664C13.4224 12.132 13.5584 11.682 13.8304 11.314C14.1064 10.942 14.4784 10.662 14.9464 10.474C15.4144 10.282 15.9384 10.186 16.5184 10.186C17.1024 10.194 17.6244 10.298 18.0844 10.498C18.5484 10.698 18.9324 10.986 19.2364 11.362C19.5444 11.734 19.7564 12.186 19.8724 12.718L18.5284 12.946C18.4684 12.622 18.3404 12.344 18.1444 12.112C17.9484 11.876 17.7084 11.696 17.4244 11.572C17.1404 11.444 16.8324 11.378 16.5004 11.374C16.1804 11.366 15.8864 11.414 15.6184 11.518C15.3544 11.622 15.1424 11.768 14.9824 11.956C14.8264 12.144 14.7484 12.36 14.7484 12.604C14.7484 12.844 14.8184 13.038 14.9584 13.186C15.0984 13.334 15.2704 13.452 15.4744 13.54C15.6824 13.624 15.8884 13.694 16.0924 13.75L17.6884 14.2C17.8884 14.256 18.1144 14.332 18.3664 14.428C18.6224 14.52 18.8684 14.65 19.1044 14.818C19.3444 14.986 19.5424 15.21 19.6984 15.49C19.8544 15.766 19.9324 16.114 19.9324 16.534C19.9324 16.97 19.8444 17.354 19.6684 17.686C19.4924 18.014 19.2504 18.29 18.9424 18.514C18.6384 18.734 18.2864 18.9 17.8864 19.012C17.4864 19.124 17.0644 19.18 16.6204 19.18ZM21.3311 11.458V10.24H22.5851V11.458H21.3311ZM21.3311 19V12.52H22.5851V19H21.3311ZM27.0569 22.06C26.7089 22.06 26.3709 22.006 26.0429 21.898C25.7189 21.79 25.4229 21.63 25.1549 21.418C24.8869 21.21 24.6649 20.952 24.4889 20.644L25.6469 20.056C25.7869 20.332 25.9869 20.534 26.2469 20.662C26.5069 20.79 26.7809 20.854 27.0689 20.854C27.4249 20.854 27.7289 20.79 27.9809 20.662C28.2329 20.538 28.4229 20.35 28.5509 20.098C28.6829 19.846 28.7469 19.534 28.7429 19.162V17.35H28.8929V12.52H30.0029V19.174C30.0029 19.346 29.9969 19.51 29.9849 19.666C29.9729 19.822 29.9509 19.978 29.9189 20.134C29.8269 20.57 29.6509 20.93 29.3909 21.214C29.1349 21.498 28.8069 21.71 28.4069 21.85C28.0109 21.99 27.5609 22.06 27.0569 22.06ZM26.9609 19.18C26.3569 19.18 25.8349 19.03 25.3949 18.73C24.9589 18.43 24.6209 18.022 24.3809 17.506C24.1449 16.986 24.0269 16.402 24.0269 15.754C24.0269 15.102 24.1469 14.52 24.3869 14.008C24.6269 13.492 24.9669 13.086 25.4069 12.79C25.8509 12.49 26.3769 12.34 26.9849 12.34C27.5969 12.34 28.1109 12.49 28.5269 12.79C28.9469 13.086 29.2629 13.492 29.4749 14.008C29.6909 14.524 29.7989 15.106 29.7989 15.754C29.7989 16.402 29.6909 16.984 29.4749 17.5C29.2589 18.016 28.9409 18.426 28.5209 18.73C28.1009 19.03 27.5809 19.18 26.9609 19.18ZM27.1349 18.046C27.5469 18.046 27.8829 17.948 28.1429 17.752C28.4029 17.556 28.5929 17.286 28.7129 16.942C28.8329 16.598 28.8929 16.202 28.8929 15.754C28.8929 15.306 28.8309 14.91 28.7069 14.566C28.5869 14.222 28.3989 13.954 28.1429 13.762C27.8909 13.57 27.5689 13.474 27.1769 13.474C26.7609 13.474 26.4189 13.576 26.1509 13.78C25.8829 13.984 25.6829 14.258 25.5509 14.602C25.4229 14.946 25.3589 15.33 25.3589 15.754C25.3589 16.182 25.4229 16.57 25.5509 16.918C25.6829 17.262 25.8789 17.536 26.1389 17.74C26.4029 17.944 26.7349 18.046 27.1349 18.046ZM36.2357 19V15.814C36.2357 15.562 36.2137 15.304 36.1697 15.04C36.1297 14.772 36.0497 14.524 35.9297 14.296C35.8137 14.068 35.6477 13.884 35.4317 13.744C35.2197 13.604 34.9417 13.534 34.5977 13.534C34.3737 13.534 34.1617 13.572 33.9617 13.648C33.7617 13.72 33.5857 13.838 33.4337 14.002C33.2857 14.166 33.1677 14.382 33.0797 14.65C32.9957 14.918 32.9537 15.244 32.9537 15.628L32.1737 15.334C32.1737 14.746 32.2837 14.228 32.5037 13.78C32.7237 13.328 33.0397 12.976 33.4517 12.724C33.8637 12.472 34.3617 12.346 34.9457 12.346C35.3937 12.346 35.7697 12.418 36.0737 12.562C36.3777 12.706 36.6237 12.896 36.8117 13.132C37.0037 13.364 37.1497 13.618 37.2497 13.894C37.3497 14.17 37.4177 14.44 37.4537 14.704C37.4897 14.968 37.5077 15.2 37.5077 15.4V19H36.2357ZM31.6817 19V12.52H32.8037V14.392H32.9537V19H31.6817ZM42.1532 10.201V8.78H43.6162V10.201H42.1532ZM42.1532 19V11.44H43.6162V19H42.1532ZM51.0243 19V15.283C51.0243 14.989 50.9986 14.688 50.9473 14.38C50.9006 14.0673 50.8073 13.778 50.6673 13.512C50.5319 13.246 50.3383 13.0313 50.0863 12.868C49.8389 12.7047 49.5146 12.623 49.1133 12.623C48.8519 12.623 48.6046 12.6673 48.3713 12.756C48.1379 12.84 47.9326 12.9777 47.7553 13.169C47.5826 13.3603 47.4449 13.6123 47.3423 13.925C47.2443 14.2377 47.1953 14.618 47.1953 15.066L46.2853 14.723C46.2853 14.037 46.4136 13.4327 46.6703 12.91C46.9269 12.3827 47.2956 11.972 47.7763 11.678C48.2569 11.384 48.8379 11.237 49.5193 11.237C50.0419 11.237 50.4806 11.321 50.8353 11.489C51.1899 11.657 51.4769 11.8787 51.6963 12.154C51.9203 12.4247 52.0906 12.721 52.2073 13.043C52.3239 13.365 52.4033 13.68 52.4453 13.988C52.4873 14.296 52.5083 14.5667 52.5083 14.8V19H51.0243ZM45.7113 19V11.44H47.0203V13.624H47.1953V19H45.7113Z" fill="white"/>
</svg>
