<svg width="117" height="117" viewBox="0 0 117 117" fill="none" xmlns="http://www.w3.org/2000/svg">
<path d="M58.5 0C26.2429 0 0 26.2429 0 58.5C0 90.7571 26.2429 117 58.5 117C90.7571 117 117 90.7571 117 58.5C117 26.2429 90.7571 0 58.5 0ZM58.5 110.307C29.9334 110.307 6.69311 87.0662 6.69311 58.5C6.69311 29.9338 29.9334 6.69311 58.5 6.69311C87.0666 6.69311 110.307 29.9338 110.307 58.5C110.307 87.0662 87.0666 110.307 58.5 110.307Z" fill="black"/>
<path d="M72.0492 26.7546H64.1164C57.6237 26.7546 52.3414 32.0369 52.3414 38.5296V47.4538H44.951C43.1026 47.4538 41.6045 48.9519 41.6045 50.8003C41.6045 52.6487 43.1026 54.1469 44.951 54.1469H52.3414V85.1334C52.3414 86.9818 53.8395 88.4799 55.6879 88.4799C57.5363 88.4799 59.0345 86.9818 59.0345 85.1334V54.1469H70.4685C72.3169 54.1469 73.8151 52.6487 73.8151 50.8003C73.8151 48.9519 72.3169 47.4538 70.4685 47.4538H59.0345V38.5296C59.0345 35.7275 61.3142 33.4477 64.1164 33.4477H72.0488C73.8973 33.4477 75.3954 31.9496 75.3954 30.1011C75.3954 28.2527 73.8973 26.7546 72.0492 26.7546Z" fill="black"/>
</svg>
