<svg width="117" height="117" viewBox="0 0 117 117" fill="none" xmlns="http://www.w3.org/2000/svg">
<path d="M93.7534 55.5624C92.9239 54.5373 91.4201 54.379 90.3954 55.2087L89.5645 55.881C88.5396 56.7107 88.3815 58.2144 89.2112 59.2393C89.6833 59.8222 90.3728 60.1247 91.0686 60.1247C91.5962 60.1247 92.1275 59.9506 92.5695 59.5928L93.4002 58.9205C94.4248 58.0907 94.5832 56.5873 93.7534 55.5624Z" fill="black"/>
<path d="M86.9188 61.0952C86.0893 60.0701 84.5854 59.9118 83.5608 60.7413L66.4888 74.3777C65.4639 75.2075 65.3058 76.7109 66.1355 77.7358C66.6072 78.3187 67.2969 78.6213 67.9927 78.6213C68.5203 78.6213 69.0516 78.4471 69.4936 78.0895L86.5655 64.4531C87.5902 63.6235 87.7486 62.1204 86.9188 61.0952Z" fill="black"/>
<path d="M102.773 14.3245H14.2269C6.38221 14.3245 0 20.7067 0 28.5512V88.449C0 96.2937 6.38221 102.676 14.2269 102.676H102.773C110.618 102.676 117 96.2937 117 88.449V28.5512C117 20.7067 110.618 14.3245 102.773 14.3245ZM95.9565 19.0998L58.4678 49.4028L20.9791 19.0998H95.9565ZM97.8335 97.9002H19.1021V42.1342L56.9699 72.6387C57.8442 73.343 59.0914 73.343 59.9657 72.6387L97.8333 42.1342V97.9002H97.8335ZM112.224 88.4488C112.224 93.6603 107.985 97.9 102.773 97.9H102.609V37.1445C102.609 36.2252 102.082 35.3877 101.252 34.9908C100.422 34.5936 99.439 34.7086 98.7235 35.2851L58.4678 67.7133L18.212 35.2851C17.4958 34.7086 16.5123 34.5936 15.6835 34.9908C14.854 35.3877 14.3263 36.2252 14.3263 37.1445V97.9H14.2267C9.0154 97.9002 4.77552 93.6603 4.77552 88.449V28.5512C4.77552 23.6093 8.58899 19.5436 13.4273 19.1364L56.9669 54.3305C57.4045 54.6845 57.9362 54.8614 58.4678 54.8614C58.9995 54.8614 59.5311 54.6845 59.9687 54.3305L103.514 19.1316C108.38 19.5109 112.224 23.5892 112.224 28.551V88.4488Z" fill="black"/>
</svg>
