<svg width="117" height="117" viewBox="0 0 117 117" fill="none" xmlns="http://www.w3.org/2000/svg">
<g clip-path="url(#clip0)">
<path d="M58.5195 28.4603C41.9299 28.4603 28.4993 41.9055 28.4993 58.4805C28.4993 75.0701 41.9445 88.5008 58.5195 88.5008C75.1091 88.5008 88.5398 75.0555 88.5398 58.4805C88.5398 41.8909 75.0945 28.4603 58.5195 28.4603ZM58.5195 77.9659C47.7506 77.9659 39.0341 69.2445 39.0341 58.4805C39.0341 47.7165 47.7555 38.9951 58.5195 38.9951C69.2835 38.9951 78.0049 47.7165 78.0049 58.4805C78.0098 69.2445 69.2884 77.9659 58.5195 77.9659Z" fill="black"/>
<path d="M82.6207 0.371035C71.8567 -0.13109 45.1953 -0.106715 34.4215 0.371035C24.9543 0.81466 16.6034 3.10103 9.87103 9.83341C-1.38047 21.0849 0.0576548 36.2462 0.0576548 58.481C0.0576548 81.2375 -1.20985 96.0478 9.87103 107.129C21.1664 118.419 36.547 116.942 58.5187 116.942C81.0607 116.942 88.8411 116.957 96.8118 113.871C107.649 109.664 115.829 99.977 116.629 82.5782C117.136 71.8093 117.106 45.1528 116.629 34.379C115.663 13.8407 104.641 1.38503 82.6207 0.371035ZM99.6588 99.6845C92.2829 107.06 82.0503 106.402 58.3773 106.402C34.0023 106.402 24.2279 106.763 17.0958 99.6114C8.8814 91.436 10.3683 78.3077 10.3683 58.403C10.3683 31.4687 7.60416 12.071 34.636 10.6865C40.8468 10.4672 42.6749 10.394 58.309 10.394L58.5284 10.5403C84.5073 10.5403 104.89 7.82003 106.113 34.847C106.391 41.0139 106.455 42.8664 106.455 58.4762C106.45 82.5684 106.908 92.4013 99.6588 99.6845Z" fill="black"/>
<path d="M89.7292 34.2908C93.6036 34.2908 96.7444 31.15 96.7444 27.2756C96.7444 23.4013 93.6036 20.2605 89.7292 20.2605C85.8549 20.2605 82.7141 23.4013 82.7141 27.2756C82.7141 31.15 85.8549 34.2908 89.7292 34.2908Z" fill="black"/>
</g>
<defs>
<clipPath id="clip0">
<rect width="117" height="117" fill="white"/>
</clipPath>
</defs>
</svg>
